<svg xmlns="http://www.w3.org/2000/svg" shape-rendering="geometricPrecision"
    text-rendering="geometricPrecision" image-rendering="optimizeQuality" fill-rule="evenodd"
    clip-rule="evenodd" viewBox="0 0 512 512" fill="white">
    <path fill-rule="nonzero"
        d="M208.75 153.5c1.74-.77 3.5-1.48 5.28-2.16a117.29 117.29 0 0 1 41.78-7.68c32.4 0 61.76 13.15 83 34.39l.87.94c20.73 21.19 33.51 50.17 33.51 82.06 0 32.41-13.15 61.77-34.38 83.01-21.24 21.24-50.6 34.39-83 34.39-30.53 0-58.4-11.71-79.31-30.89l-.93-.92c-20.54-19.27-34.18-45.83-36.72-75.48-.74-9.03 5.98-16.97 15.02-17.7 9.03-.74 16.97 5.99 17.7 15.02 1.83 21.34 11.58 40.4 26.24 54.21l.89.76c15 13.74 35.06 22.15 57.11 22.15 23.34 0 44.49-9.47 59.78-24.76 15.29-15.29 24.76-36.45 24.76-59.79 0-23.01-9.14-43.86-23.97-59.05l-.79-.74c-15.29-15.28-36.44-24.75-59.78-24.75-10.65 0-20.8 1.94-30.11 5.49l-2.87 1.15 16.87 6.09c8.5 3.04 12.92 12.42 9.88 20.92-3.05 8.49-12.43 12.92-20.92 9.88l-54.21-19.56c-8.5-3.04-12.93-12.43-9.88-20.92l18.63-51.66c3.04-8.49 12.42-12.92 20.92-9.87 8.49 3.04 12.92 12.42 9.88 20.91l-5.25 14.56zM256 33.44c-61.45 0-117.1 24.91-157.37 65.18C58.36 138.88 33.44 194.54 33.44 256c0 61.49 24.89 117.14 65.13 157.37 40.33 40.27 95.97 65.19 157.43 65.19 61.46 0 117.11-24.92 157.38-65.19 40.27-40.27 65.18-95.92 65.18-157.37 0-61.46-24.92-117.12-65.19-157.38C373.1 58.35 317.46 33.44 256 33.44zM74.99 74.98C121.32 28.66 185.33 0 256 0c70.68 0 134.68 28.66 181.01 74.98C483.33 121.31 512 185.32 512 256c0 70.67-28.66 134.68-74.98 181.01C390.69 483.33 326.68 512 256 512s-134.68-28.67-181.01-74.99C28.68 390.62 0 326.61 0 256c0-70.68 28.67-134.69 74.99-181.02z" />
</svg>